<svg version="1.0" xmlns="http://www.w3.org/2000/svg" width="512.000000pt" height="410.000000pt" viewBox="0 0 512.000000 410.000000" preserveAspectRatio="xMidYMid meet">

<g transform="translate(0.000000,410.000000) scale(0.100000,-0.100000)" fill="#3cd070" stroke="none">
<path d="M2440 3616 c3 -2 59 -12 125 -21 66 -8 147 -22 180 -29 33 -8 66 -11 74 -6 10 5 6 10 -17 15 -17 3 -36 4 -42 0 -5 -3 -10 -1 -10 5 0 6 -8 10 -17 9 -10 -1 -20 0 -23 1 -47 18 -285 42 -270 26z" fill="#3cd070"/>
<path d="M2775 3600 c185 -32 373 -98 476 -167 23 -15 50 -32 60 -38 11 -5 19 -13 19 -17 0 -4 24 -18 53 -31 119 -55 302 -269 407 -477 17 -33 33 -60 35 -60 3 0 1 9 -5 19 -13 25 -13 34 1 25 8 -4 7 0 -1 15 -6 12 -16 18 -22 15 -8 -5 -9 -1 -5 10 5 11 3 15 -5 10 -8 -5 -9 -2 -5 10 5 11 3 15 -5 10 -7 -5 -9 -2 -6 8 8 18 -35 93 -53 93 -7 0 -14 6 -17 14 -3 9 0 11 8 6 9 -5 11 -4 6 4 -4 6 -12 8 -18 5 -7 -5 -9 -2 -5 8 3 10 -14 39 -48 79 -61 74 -165 177 -165 165 0 -5 -9 3 -20 17 -14 17 -26 24 -37 20 -10 -4 -14 -2 -9 5 4 6 -12 24 -38 42 -62 42 -248 133 -326 159 -101 33 -280 71 -330 70 -35 -1 -23 -5 55 -19z m635 -247 c0 -7 -39 17 -46 28 -3 6 5 3 20 -6 14 -10 26 -19 26 -22z m41 -30 c13 -16 12 -17 -3 -4 -17 13 -22 21 -14 21 2 0 10 -8 17 -17z m59 -48 c13 -14 21 -25 18 -25 -2 0 -15 11 -28 25 -13 14 -21 25 -18 25 2 0 15 -11 28 -25z m120 -122 c0 -8 -9 0 -50 45 l-45 47 48 -45 c26 -24 47 -45 47 -47z m40 -53 c30 -43 18 -37 -16 7 -15 20 -23 33 -16 29 6 -3 21 -20 32 -36z m80 -120 c6 -11 8 -20 6 -20 -3 0 -10 9 -16 20 -6 11 -8 20 -6 20 3 0 10 -9 16 -20z" fill="#3cd070"/>
<path d="M2831 3553 c-17 -7 113 -55 146 -55 13 0 20 -5 17 -10 -4 -6 2 -7 16 -3 15 5 20 4 16 -4 -5 -7 -1 -8 10 -4 11 4 15 2 11 -4 -4 -5 5 -15 19 -22 15 -6 23 -7 19 -1 -9 15 1 12 45 -10 38 -20 56 -38 25 -26 -22 8 -18 -2 6 -15 17 -8 20 -8 14 1 -5 8 -3 11 6 8 8 -3 14 -10 14 -16 0 -7 18 -24 40 -39 22 -15 34 -19 26 -10 -7 9 -9 17 -3 17 5 0 15 -7 22 -15 7 -8 9 -15 4 -15 -5 0 29 -38 75 -84 46 -46 90 -82 97 -79 16 6 78 -79 162 -220 122 -207 148 -280 178 -489 10 -70 20 -125 22 -123 8 8 -21 272 -34 302 -8 17 -14 36 -14 42 0 20 -72 173 -124 261 -134 231 -341 430 -550 529 -37 18 -83 33 -101 34 -19 1 -31 5 -28 11 4 5 -1 7 -10 3 -10 -3 -17 -2 -17 3 0 5 -15 13 -32 18 -18 6 -40 12 -48 15 -8 3 -21 3 -29 0z m405 -178 c10 -8 15 -14 9 -14 -5 0 -19 6 -29 14 -11 8 -15 15 -10 15 6 0 19 -7 30 -15z m159 -128 c38 -35 64 -66 59 -70 -6 -3 -46 30 -90 75 -91 93 -70 89 31 -5z" fill="#3cd070"/>
<path d="M1700 3490 c0 -5 7 -7 15 -4 8 4 15 8 15 10 0 2 -7 4 -15 4 -8 0 -15 -4 -15 -10z" fill="#3cd070"/>
<path d="M1724 3471 c7 -11 46 -35 46 -28 0 3 -12 12 -26 22 -15 9 -23 12 -20 6z" fill="#3cd070"/>
<path d="M1790 3425 c8 -9 44 -36 81 -60 37 -24 87 -61 111 -81 40 -35 41 -36 13 -5 -31 33 -229 175 -205 146z" fill="#3cd070"/>
<path d="M1830 3436 c0 -3 9 -10 20 -16 11 -6 20 -8 20 -6 0 3 -9 10 -20 16 -11 6 -20 8 -20 6z" fill="#3cd070"/>
<path d="M1881 3406 c10 -9 89 -46 89 -41 0 5 -75 45 -86 45 -4 0 -5 -2 -3 -4z" fill="#3cd070"/>
<path d="M2010 3335 c0 -7 101 -57 106 -53 2 2 -21 16 -51 31 -30 15 -55 25 -55 22z" fill="#3cd070"/>
<path d="M2026 3227 c3 -10 9 -15 12 -12 3 3 0 11 -7 18 -10 9 -11 8 -5 -6z" fill="#3cd070"/>
<path d="M2230 3225 c0 -7 61 -37 66 -33 2 3 -12 12 -31 21 -19 9 -35 15 -35 12z" fill="#3cd070"/>
<path d="M2310 3186 c0 -3 14 -12 30 -21 17 -9 30 -13 30 -11 0 3 -13 12 -30 21 -16 9 -30 13 -30 11z" fill="#3cd070"/>
<path d="M2017 3152 c-35 -39 -24 -55 71 -102 34 -17 62 -36 62 -42 0 -9 -3 -9 -12 0 -7 7 -22 12 -34 12 -12 0 -25 6 -27 13 -3 7 -6 5 -6 -5 -1 -26 -20 -22 -27 6 -3 13 -16 28 -30 35 -20 9 -29 26 -26 52 1 10 -50 2 -57 -9 -3 -5 -21 -17 -38 -26 -18 -9 -33 -19 -33 -22 0 -2 9 0 19 6 45 23 56 4 14 -22 l-28 -17 53 3 c28 1 52 -1 52 -5 0 -9 -58 -39 -79 -40 -9 -1 -5 -4 9 -8 18 -6 30 -3 43 11 10 10 22 18 27 18 6 0 10 6 10 14 0 8 7 17 16 20 25 10 34 7 28 -8 -3 -8 -1 -17 5 -21 18 -11 13 -55 -6 -56 -16 0 -15 -1 2 -8 19 -8 19 -8 0 -19 -11 -6 -15 -12 -8 -12 7 0 28 16 47 35 l35 34 53 -15 c29 -8 61 -19 71 -24 11 -7 17 -7 17 1 0 6 16 1 36 -11 66 -41 44 -14 -28 36 -40 27 -75 52 -78 55 -3 3 -27 14 -53 24 -26 10 -50 23 -54 28 -4 7 1 8 13 3 10 -4 33 -9 49 -12 17 -2 8 3 -19 12 -27 8 -60 22 -73 31 -22 15 -23 17 -7 34 10 11 15 19 12 19 -3 0 -12 -8 -21 -18z m53 -160 c0 -5 -7 -17 -15 -28 -14 -18 -14 -17 -4 9 12 27 19 34 19 19z" fill="#3cd070"/>
<path d="M3465 3130 c10 -11 20 -20 23 -20 3 0 -3 9 -13 20 -10 11 -20 20 -23 20 -3 0 3 -9 13 -20z" fill="#3cd070"/>
<path d="M2440 3120 c8 -5 20 -10 25 -10 6 0 3 5 -5 10 -8 5 -19 10 -25 10 -5 0 -3 -5 5 -10z" fill="#3cd070"/>
<path d="M2510 3090 c8 -5 20 -10 25 -10 6 0 3 5 -5 10 -8 5 -19 10 -25 10 -5 0 -3 -5 5 -10z" fill="#3cd070"/>
<path d="M3490 3096 c0 -2 8 -10 18 -17 15 -13 16 -12 3 4 -13 16 -21 21 -21 13z" fill="#3cd070"/>
<path d="M2168 3063 c7 -3 16 -2 19 1 4 3 -2 6 -13 5 -11 0 -14 -3 -6 -6z" fill="#3cd070"/>
<path d="M2580 3060 c8 -5 20 -10 25 -10 6 0 3 5 -5 10 -8 5 -19 10 -25 10 -5 0 -3 -5 5 -10z" fill="#3cd070"/>
<path d="M1788 3043 c7 -3 16 -2 19 1 4 3 -2 6 -13 5 -11 0 -14 -3 -6 -6z" fill="#3cd070"/>
<path d="M2255 3037 c9 -4 24 -5 35 -2 27 9 60 -3 54 -19 -10 -25 36 -102 96 -161 33 -33 60 -55 60 -50 0 5 -10 19 -21 32 -20 20 -20 23 -5 29 9 3 30 4 46 1 16 -4 32 -2 35 4 4 5 17 1 32 -11 14 -11 40 -20 57 -20 28 1 29 2 14 14 -27 20 -23 39 7 34 14 -3 25 -1 25 3 0 5 5 9 11 9 5 0 8 -3 6 -7 -3 -5 8 -9 25 -10 60 -4 109 -44 190 -152 54 -71 75 -108 68 -115 -18 -18 -11 -43 35 -135 50 -97 65 -164 53 -226 -5 -22 -10 -53 -12 -69 -2 -16 -11 -33 -21 -39 -12 -6 -16 -6 -11 1 3 6 -8 21 -26 33 -18 13 -34 27 -36 31 -2 4 -10 8 -17 8 -8 0 -22 11 -32 24 -18 22 -58 43 -75 38 -10 -2 -10 12 -1 21 3 4 13 1 21 -6 11 -8 14 -8 9 0 -4 6 -1 14 5 17 7 3 1 5 -14 3 -21 -3 -30 3 -48 34 -28 51 -41 58 -38 20 1 -16 5 -28 10 -25 4 3 13 -14 19 -37 10 -32 10 -45 0 -61 -8 -13 -9 -23 -2 -32 7 -8 4 -16 -11 -25 -17 -11 -22 -11 -29 0 -4 8 -4 18 1 23 15 15 12 36 -4 36 -16 0 -29 27 -20 41 3 5 -2 9 -10 9 -9 0 -16 5 -16 10 0 6 -5 10 -11 10 -7 0 -9 -10 -5 -24 3 -14 1 -28 -5 -32 -6 -3 -9 -19 -5 -35 3 -16 1 -40 -4 -54 -11 -29 -3 -33 16 -8 19 28 29 7 10 -22 -19 -29 -12 -53 10 -34 8 6 14 17 14 24 0 17 83 61 88 46 2 -6 8 -9 13 -6 5 4 7 -8 5 -25 -3 -26 -22 -58 -47 -80 -3 -3 -8 -13 -12 -22 -4 -11 -13 -15 -28 -11 -17 5 -20 3 -14 -7 5 -9 4 -11 -4 -6 -6 4 -8 12 -4 19 4 6 8 25 10 42 2 29 2 29 -10 7 -8 -14 -16 -19 -22 -13 -13 13 -40 -3 -31 -17 4 -6 14 -8 23 -5 10 4 14 2 11 -7 -2 -7 6 -23 18 -35 13 -13 28 -42 34 -65 13 -49 39 -92 50 -85 4 3 7 -3 6 -13 0 -9 9 -21 22 -27 12 -5 22 -15 22 -22 0 -7 5 -13 10 -13 6 0 10 -7 10 -15 0 -9 -6 -12 -15 -9 -9 4 -15 0 -15 -10 0 -9 6 -13 13 -10 8 3 20 -2 27 -11 7 -8 21 -15 31 -15 10 0 20 -4 24 -9 3 -6 -6 -8 -21 -5 -16 3 -23 1 -19 -6 10 -16 45 -12 52 6 3 9 1 19 -5 23 -7 4 -8 12 -2 20 10 17 2 43 -11 35 -5 -3 -6 2 -3 9 3 8 14 17 25 20 20 5 27 37 8 37 -5 0 -8 -4 -5 -9 4 -5 -5 -4 -19 2 -13 7 -20 13 -15 15 5 2 6 10 3 18 -3 7 -8 12 -12 9 -4 -2 -7 11 -7 30 1 18 4 31 9 28 4 -2 7 4 7 14 0 11 11 34 25 53 14 19 25 28 25 22 0 -10 3 -10 14 0 8 7 11 17 8 22 -3 5 0 6 6 2 14 -9 16 16 2 30 -6 6 1 16 20 29 29 19 46 49 53 90 2 11 7 33 12 49 l8 29 12 -24 c15 -27 12 -144 -5 -195 -9 -27 -16 -34 -29 -29 -12 5 -13 3 -5 -5 16 -16 46 1 61 32 12 25 33 152 33 196 0 16 -18 65 -39 109 -22 45 -44 97 -50 115 -29 98 -81 195 -134 256 -53 59 -98 130 -87 137 5 3 46 -29 90 -71 66 -63 80 -73 80 -54 0 13 -5 20 -12 17 -7 -2 -50 31 -95 73 -65 61 -88 78 -110 77 -15 -1 -31 -6 -34 -10 -4 -5 -22 -2 -40 6 -74 35 -121 46 -139 34 -15 -9 -26 -6 -57 15 -56 37 -87 52 -79 39 4 -6 4 -11 1 -11 -4 0 -16 5 -27 11 -15 8 -18 8 -14 0 5 -7 1 -9 -8 -5 -9 3 -16 11 -16 17 0 6 -3 7 -7 4 -3 -4 -20 2 -38 13 -22 13 -47 19 -78 18 -32 -2 -42 -5 -32 -11z m305 -101 c23 -6 77 -73 67 -83 -3 -2 -34 21 -71 52 -66 56 -86 80 -43 53 12 -8 33 -18 47 -22z m-52 -12 c20 -20 30 -32 21 -25 -9 6 -20 7 -24 3 -5 -4 -6 -2 -2 3 3 6 -3 17 -14 23 -18 12 -19 11 -10 -7 17 -31 13 -36 -9 -11 -11 12 -17 27 -13 33 3 5 1 7 -5 3 -6 -3 -13 -2 -17 4 -16 26 39 6 73 -26z m209 -679 c0 -8 -4 -12 -9 -9 -5 3 -6 10 -3 15 9 13 12 11 12 -6z m233 -49 c0 -2 -8 -10 -17 -17 -16 -13 -17 -12 -4 4 13 16 21 21 21 13z m60 -31 c20 -25 4 -29 -21 -6 -18 16 -19 21 -7 21 9 0 21 -7 28 -15z m-90 -410 c0 -8 -2 -15 -4 -15 -2 0 -6 7 -10 15 -3 8 -1 15 4 15 6 0 10 -7 10 -15z" fill="#3cd070"/>
<path d="M3555 3006 c10 -14 19 -26 22 -26 7 0 -17 39 -28 46 -6 3 -3 -5 6 -20z" fill="#3cd070"/>
<path d="M2256 3005 c-3 -8 -1 -15 4 -15 6 0 10 7 10 15 0 8 -2 15 -4 15 -2 0 -6 -7 -10 -15z" fill="#3cd070"/>
<path d="M2680 3015 c0 -7 30 -13 34 -7 3 4 -4 9 -15 9 -10 1 -19 0 -19 -2z" fill="#3cd070"/>
<path d="M1755 3001 c-29 -7 -28 -7 17 -15 26 -4 57 -15 70 -25 l23 -19 -42 -12 c-44 -13 -63 -37 -38 -46 8 -4 15 -14 15 -23 1 -14 2 -14 14 2 16 21 25 21 51 1 13 -10 16 -17 9 -22 -16 -10 -5 -72 13 -79 31 -12 45 54 17 78 -14 12 -14 14 5 21 12 4 21 14 21 23 0 17 16 20 25 5 4 -6 11 -7 18 -3 7 4 4 9 -9 14 -16 6 -16 8 -2 8 9 1 21 -5 25 -12 9 -15 43 -30 43 -19 0 21 -44 43 -74 38 -26 -5 -40 0 -75 26 -24 18 -39 34 -33 36 16 5 15 18 0 20 -7 1 -24 3 -38 6 -14 2 -38 1 -55 -3z m146 -108 c13 -16 12 -17 -3 -4 -10 7 -18 15 -18 17 0 8 8 3 21 -13z" fill="#3cd070"/>
<path d="M2720 2997 c0 -5 73 -56 100 -70 8 -5 3 2 -12 15 -30 26 -88 62 -88 55z" fill="#3cd070"/>
<path d="M1655 2959 c-28 -6 -28 -7 -5 -9 23 -1 23 -2 5 -9 -11 -5 -27 -6 -35 -4 -13 4 -13 3 -1 -5 15 -11 34 -7 64 14 24 16 10 22 -28 13z" fill="#3cd070"/>
<path d="M1718 2963 c7 -3 16 -2 19 1 4 3 -2 6 -13 5 -11 0 -14 -3 -6 -6z" fill="#3cd070"/>
<path d="M1775 2960 c-3 -5 -18 -11 -33 -11 -18 -1 -21 -3 -9 -6 10 -3 26 -1 35 3 9 4 26 6 37 5 17 -2 17 0 5 8 -19 13 -27 14 -35 1z" fill="#3cd070"/>
<path d="M3590 2950 c6 -11 13 -20 16 -20 2 0 0 9 -6 20 -6 11 -13 20 -16 20 -2 0 0 -9 6 -20z" fill="#3cd070"/>
<path d="M1556 2889 c-28 -32 -33 -49 -15 -49 5 0 8 4 4 9 -7 13 35 57 60 64 19 4 19 5 -2 6 -12 1 -32 -12 -47 -30z" fill="#3cd070"/>
<path d="M1672 2894 c10 -10 20 -15 24 -12 3 4 -5 12 -18 18 -22 12 -22 12 -6 -6z" fill="#3cd070"/>
<path d="M3652 2835 c18 -35 34 -63 36 -61 4 5 -56 126 -63 126 -3 0 10 -29 27 -65z" fill="#3cd070"/>
<path d="M1610 2876 c0 -2 7 -7 16 -10 8 -3 12 -2 9 4 -6 10 -25 14 -25 6z" fill="#3cd070"/>
<path d="M1732 2858 c7 -15 15 -23 17 -17 2 6 -4 18 -13 27 -15 15 -15 15 -4 -10z" fill="#3cd070"/>
<path d="M1495 2829 c-11 -13 -13 -19 -6 -12 16 13 43 1 73 -32 9 -11 17 -15 18 -9 0 13 -33 44 -48 44 -6 0 -12 7 -14 16 -2 13 -7 12 -23 -7z" fill="#3cd070"/>
<path d="M1781 2818 c-5 -14 -10 -17 -15 -10 -14 23 -22 12 -18 -24 3 -26 1 -35 -7 -30 -6 4 -11 21 -11 37 0 17 -6 32 -15 36 -22 8 -33 -6 -15 -17 8 -6 11 -10 7 -10 -4 0 -3 -10 4 -22 8 -17 4 -15 -15 7 -24 29 -32 25 -27 -13 3 -17 -21 -11 -37 10 -7 10 -23 23 -35 29 -19 9 -18 7 4 -13 15 -12 29 -31 33 -41 8 -23 -19 -34 -41 -16 -11 9 -9 3 5 -15 28 -37 31 -67 4 -43 -25 23 -34 21 -27 -5 5 -21 5 -21 -9 2 -20 33 -20 39 2 35 9 -1 11 0 5 2 -7 3 -13 13 -13 23 0 11 -12 22 -31 29 -42 15 -45 14 -45 -8 0 -10 6 -17 12 -14 7 2 22 -1 35 -7 16 -9 19 -14 8 -20 -10 -7 -10 -12 -1 -23 10 -12 9 -16 -3 -21 -9 -3 -15 0 -15 8 0 15 -38 52 -45 44 -3 -3 4 -13 15 -23 26 -23 26 -39 1 -25 -26 13 -28 13 -28 -5 0 -8 6 -15 13 -15 7 0 16 -5 20 -12 5 -8 0 -9 -17 -4 -13 4 -33 9 -44 10 -11 2 -24 4 -28 5 -5 0 -5 6 -1 12 3 6 15 9 25 6 11 -3 19 -1 19 3 0 14 -60 23 -74 11 -7 -6 -15 -8 -18 -5 -3 2 -8 -2 -11 -11 -4 -8 -1 -15 5 -15 6 0 0 -9 -13 -19 -14 -10 -31 -35 -38 -54 -8 -20 -18 -34 -23 -31 -13 8 -9 -31 4 -44 13 -13 -2 -17 -18 -4 -5 4 -1 0 8 -10 10 -9 18 -21 18 -28 0 -6 4 -9 9 -5 5 3 12 2 15 -3 3 -5 -8 -8 -24 -8 -17 0 -28 2 -25 4 2 3 0 13 -5 22 -13 24 -47 15 -49 -13 -1 -12 -3 -35 -5 -52 -2 -16 -4 -36 -5 -42 -1 -7 -9 -13 -18 -13 -15 0 -14 -2 4 -15 24 -17 38 -56 17 -48 -8 3 -14 11 -14 18 0 8 -5 17 -12 21 -7 4 -8 3 -4 -4 4 -7 1 -12 -8 -12 -8 0 -13 -7 -11 -17 2 -10 4 -18 5 -18 7 0 4 -47 -3 -52 -6 -3 -7 -1 -3 5 4 7 3 12 -2 12 -23 0 -21 -33 3 -52 14 -11 22 -24 19 -30 -4 -7 -2 -8 4 -4 8 5 8 15 2 34 -10 25 -9 26 5 8 8 -11 13 -28 9 -38 -3 -10 -1 -19 5 -19 26 -3 30 -4 35 -11 3 -5 3 -6 -1 -3 -3 3 -11 0 -18 -5 -7 -6 -20 -4 -36 8 -13 9 -30 17 -36 18 -17 3 -28 -42 -17 -69 12 -27 6 -80 -7 -71 -5 3 -9 2 -8 -3 1 -4 0 -10 -1 -13 -1 -3 -3 -15 -4 -27 -2 -19 0 -21 12 -10 13 10 14 9 5 -8 -10 -17 -7 -22 15 -32 26 -12 26 -13 -8 -7 -29 6 -33 4 -24 -7 6 -8 10 -23 8 -33 -1 -11 1 -27 6 -36 6 -11 5 -21 -2 -28 -7 -7 -4 -16 11 -28 24 -21 27 -42 7 -50 -10 -4 -13 -22 -12 -69 1 -36 6 -68 10 -72 3 -4 5 19 2 50 -2 31 -1 57 3 57 13 0 46 -29 34 -30 -22 0 -14 -26 8 -27 12 -1 34 -14 49 -28 20 -19 34 -25 49 -20 39 12 22 30 -27 28 -9 -1 -10 3 -2 12 9 11 6 12 -12 7 -20 -5 -21 -4 -10 11 15 18 8 56 -11 58 -7 1 -23 2 -36 2 -29 2 -39 22 -16 31 10 3 29 -3 44 -13 18 -13 39 -19 62 -16 19 2 41 4 49 4 12 1 12 4 -2 12 -10 5 -18 17 -18 26 0 15 2 14 13 -1 12 -16 15 -17 20 -3 3 8 0 23 -8 33 -11 15 -15 16 -29 5 -12 -10 -19 -11 -29 -2 -8 6 -17 7 -23 1 -6 -6 -15 -6 -24 0 -8 5 -10 10 -5 10 13 0 12 44 -1 47 -5 1 -8 -7 -7 -18 2 -11 -1 -17 -7 -14 -14 9 -12 -29 2 -43 9 -9 9 -12 0 -12 -7 0 -16 8 -19 17 -4 10 -17 27 -30 39 -14 13 -21 28 -17 38 7 19 28 22 21 4 -6 -18 12 -50 24 -43 5 4 5 14 -2 27 -10 18 -9 20 5 15 10 -4 19 -1 22 8 3 7 12 11 20 8 8 -3 14 0 14 6 0 12 -16 21 -46 25 -21 3 -27 46 -7 46 8 0 11 -4 8 -10 -3 -5 -1 -10 4 -10 6 0 11 4 11 8 0 14 -22 31 -35 26 -7 -3 -16 -1 -19 4 -3 5 10 8 30 6 39 -3 44 19 5 24 -23 4 -24 23 -1 30 9 3 10 0 4 -9 -6 -11 -5 -12 8 -2 8 7 17 12 19 10 2 -1 2 1 -2 6 -3 4 -16 10 -30 12 -28 6 -58 42 -59 70 0 17 2 17 17 -5 10 -14 18 -28 18 -32 0 -5 3 -8 8 -8 4 0 21 0 38 0 27 0 30 2 19 15 -7 9 -10 19 -6 22 4 4 11 1 15 -6 6 -10 11 -5 16 18 4 17 11 29 16 25 13 -7 11 -2 -7 36 -11 21 -19 28 -24 20 -5 -8 -10 -8 -14 -2 -14 23 29 21 54 -3 14 -14 29 -25 32 -25 4 0 -14 21 -40 46 -26 25 -38 41 -27 35 11 -5 32 -21 46 -35 27 -25 49 -25 28 1 -18 21 6 15 26 -7 17 -18 17 -20 2 -14 -12 4 -17 1 -17 -10 0 -9 6 -16 13 -16 7 0 28 -11 47 -25 45 -33 76 -34 35 -1 -24 19 -27 27 -18 37 10 10 14 9 18 -4 4 -9 13 -13 21 -10 11 4 8 10 -10 24 -23 18 -62 17 -50 -2 3 -5 2 -9 -1 -9 -10 0 -44 44 -45 57 0 6 -5 15 -12 19 -7 4 -8 3 -4 -4 9 -15 -5 -15 -25 1 -16 12 -15 37 2 37 5 0 8 -6 7 -12 -2 -7 5 -12 14 -10 9 1 22 -6 30 -16 15 -22 58 -39 58 -23 0 13 -85 84 -105 87 -9 1 -20 -7 -24 -18 -7 -18 -8 -19 -14 -5 -11 30 2 46 35 42 51 -6 60 2 42 37 -16 30 -15 31 5 25 14 -3 21 0 21 8 0 8 6 20 13 27 7 7 18 22 25 33 6 11 12 14 12 8 0 -18 20 -16 20 2 0 7 8 18 17 24 14 8 15 12 4 25 -11 14 -11 16 3 16 9 0 16 5 16 11 0 5 5 7 11 4 6 -4 8 -13 5 -20 -6 -17 21 -28 28 -12 3 7 3 0 0 -14 -6 -29 10 -48 20 -23 6 17 -9 54 -23 54 -5 0 -7 9 -4 20 3 11 1 20 -5 20 -5 0 -12 9 -15 20 -3 11 -1 20 4 20 5 0 9 -7 9 -15 0 -8 5 -15 10 -15 6 0 10 -7 10 -16 0 -8 4 -13 9 -10 5 3 8 -2 7 -12 -1 -13 8 -18 42 -20 53 -4 61 12 32 62 -12 20 -24 36 -27 36 -2 0 -2 -4 1 -8 3 -5 -1 -9 -9 -9 -8 0 -13 3 -11 6 2 3 -8 15 -22 25 -22 17 -25 17 -19 3 3 -9 2 -17 -2 -17 -7 0 -21 23 -21 34 0 10 40 1 44 -10 8 -20 36 -18 37 4 0 13 2 14 6 2 7 -20 34 -50 45 -50 4 0 8 9 8 21 0 11 4 18 9 15 5 -3 11 1 15 9 3 8 1 17 -4 20 -6 4 -10 1 -10 -5 0 -6 -5 -8 -11 -5 -14 10 31 57 48 51 7 -3 13 1 13 9 0 10 10 15 30 15 22 0 28 4 24 15 -4 9 0 15 7 15 11 0 11 3 -1 10 -9 6 -10 10 -3 10 14 0 43 28 43 41 0 18 -21 9 -29 -13z m-375 -182 c11 -25 16 -43 12 -40 -4 3 -8 -1 -8 -8 -1 -16 -39 62 -40 80 0 25 16 11 36 -32z m234 14 c0 -5 -7 -10 -16 -10 -8 0 -12 5 -9 10 3 6 10 10 16 10 5 0 9 -4 9 -10z m-270 -20 c0 -5 -2 -10 -4 -10 -3 0 -8 5 -11 10 -3 6 -1 10 4 10 6 0 11 -4 11 -10z m89 -4 c7 -8 8 -16 4 -19 -11 -7 -45 18 -36 26 10 11 19 8 32 -7z m-115 -23 c3 -10 6 -22 6 -28 1 -5 11 -13 22 -18 32 -12 15 -18 -26 -10 -20 5 -36 13 -34 18 2 6 9 9 16 9 6 -1 12 2 12 7 0 5 -4 9 -10 9 -5 0 -10 7 -10 15 0 21 17 19 24 -2z m276 -46 c0 -10 -4 -15 -10 -12 -5 3 -10 18 -10 33 0 21 2 24 10 12 5 -8 10 -23 10 -33z m-265 -27 c3 -4 2 -16 -1 -25 -6 -16 -8 -16 -16 -1 -12 21 -32 21 -24 0 3 -9 2 -12 -5 -9 -6 4 -8 13 -5 20 3 8 0 16 -7 18 -7 2 3 4 20 5 18 0 35 -3 38 -8z m-53 -112 c7 -18 -2 -39 -13 -32 -12 7 -11 -3 1 -26 8 -16 8 -18 -5 -14 -8 4 -15 11 -15 18 0 13 -41 41 -55 37 -5 -1 -5 3 2 9 9 10 16 9 33 -3 27 -19 57 -12 39 9 -7 9 -8 14 -1 14 5 0 12 -6 14 -12z m-60 -55 c-6 -2 -9 -10 -6 -15 5 -7 2 -8 -6 -3 -10 6 -12 4 -6 -10 6 -16 4 -16 -10 -4 -10 8 -12 15 -5 17 6 2 9 8 5 13 -3 5 5 9 18 8 13 0 17 -3 10 -6z m132 -111 c3 -8 -7 -3 -23 10 -16 13 -32 29 -35 36 -3 8 7 3 23 -10 16 -13 32 -29 35 -36z m-119 38 c3 -6 -1 -7 -9 -4 -18 7 -21 14 -7 14 6 0 13 -4 16 -10z m-45 -51 c0 -6 -4 -7 -10 -4 -5 3 -10 11 -10 16 0 6 5 7 10 4 6 -3 10 -11 10 -16z m4 -146 c4 -11 -1 -10 -23 3 -16 10 -32 25 -34 35 -4 16 -2 16 24 -3 15 -12 30 -27 33 -35z m-26 -210 c-13 -16 -15 -16 -21 1 -4 10 0 14 13 13 14 -1 16 -4 8 -14z m30 -208 c-3 -3 -9 2 -12 12 -6 14 -5 15 5 6 7 -7 10 -15 7 -18z" fill="#3cd070"/>
<path d="M2655 2820 c3 -5 15 -15 27 -21 16 -8 19 -8 16 2 -2 6 -14 16 -27 20 -14 6 -20 5 -16 -1z" fill="#3cd070"/>
<path d="M3837 2806 c-4 -10 0 -30 8 -46 11 -22 12 -30 2 -33 -7 -3 -5 -6 6 -6 9 -1 17 -7 17 -13 0 -8 5 -6 11 4 7 13 4 29 -14 64 -18 36 -25 43 -30 30z m42 -81 c0 -5 -8 6 -19 25 -11 19 -19 40 -19 45 0 6 8 -6 19 -25 11 -19 19 -39 19 -45z" fill="#3cd070"/>
<path d="M2347 2799 c7 -7 15 -10 18 -7 3 3 -2 9 -12 12 -14 6 -15 5 -6 -5z" fill="#3cd070"/>
<path d="M1975 2780 c3 -5 8 -10 11 -10 2 0 4 5 4 10 0 6 -5 10 -11 10 -5 0 -7 -4 -4 -10z" fill="#3cd070"/>
<path d="M1445 2769 c-4 -6 -5 -12 -2 -15 2 -3 7 2 10 11 7 17 1 20 -8 4z" fill="#3cd070"/>
<path d="M1600 2760 c6 -11 13 -20 16 -20 2 0 0 9 -6 20 -6 11 -13 20 -16 20 -2 0 0 -9 6 -20z" fill="#3cd070"/>
<path d="M2475 2756 c17 -7 32 -11 35 -9 8 7 -24 23 -45 22 -15 0 -13 -3 10 -13z" fill="#3cd070"/>
<path d="M3690 2755 c0 -5 5 -17 10 -25 5 -8 10 -10 10 -5 0 6 -5 17 -10 25 -5 8 -10 11 -10 5z" fill="#3cd070"/>
<path d="M2324 2738 c-4 -6 -3 -8 4 -4 6 3 13 2 17 -4 9 -15 22 -12 22 5 0 18 -33 20 -43 3z" fill="#3cd070"/>
<path d="M2375 2740 c-6 -9 1 -14 18 -11 4 0 7 -3 7 -8 0 -5 14 -11 32 -13 28 -5 29 -4 12 8 -10 7 -24 18 -31 24 -15 13 -30 13 -38 0z" fill="#3cd070"/>
<path d="M1415 2731 c-3 -5 -1 -12 5 -16 5 -3 10 -2 10 4 0 5 8 12 18 14 13 4 12 5 -5 6 -12 0 -24 -3 -28 -8z" fill="#3cd070"/>
<path d="M1860 2732 c0 -4 9 -14 20 -22 11 -8 20 -19 20 -25 0 -11 17 -21 83 -50 20 -10 37 -23 37 -31 0 -8 -21 -40 -47 -71 -25 -32 -57 -81 -69 -110 -21 -48 -27 -53 -56 -55 -18 0 -37 -2 -43 -3 -5 -2 -14 -3 -20 -4 -5 -1 -1 -7 10 -14 36 -21 85 -35 118 -32 18 1 40 -4 49 -12 18 -16 38 -10 38 13 0 8 -9 14 -21 14 -11 0 -17 5 -14 10 3 6 1 10 -4 10 -6 0 -10 5 -8 11 1 6 -4 14 -12 17 -9 3 -11 0 -6 -8 6 -10 4 -12 -8 -7 -9 3 -18 1 -21 -6 -2 -7 -5 -4 -5 6 -1 9 4 17 9 17 6 0 10 6 10 13 0 7 9 19 20 27 11 8 20 24 20 36 0 13 16 42 35 66 50 63 105 156 105 179 0 11 -7 22 -15 26 -19 7 -57 -25 -48 -40 3 -6 1 -7 -5 -3 -6 3 -15 -1 -20 -11 -9 -15 -52 -27 -52 -13 0 3 -22 23 -50 43 -27 21 -50 34 -50 29z" fill="#3cd070"/>
<path d="M2231 2715 c-22 -10 -31 -20 -28 -30 4 -8 1 -17 -5 -21 -7 -5 -8 -2 -3 7 4 8 -1 5 -12 -6 -13 -13 -17 -24 -11 -31 6 -8 3 -11 -8 -10 -9 0 -19 -5 -22 -13 -3 -10 0 -12 13 -7 15 5 16 4 5 -9 -14 -17 -35 -21 -25 -5 8 13 2 13 -30 -2 -19 -8 -24 -16 -19 -32 4 -16 3 -18 -5 -6 -15 22 -23 6 -12 -23 8 -20 7 -25 -3 -21 -13 5 -99 -90 -102 -113 -2 -9 9 -13 32 -13 19 0 34 -5 34 -11 0 -7 9 -9 21 -6 13 3 18 2 13 -3 -5 -5 -25 -10 -44 -13 -31 -3 -30 -4 10 -5 25 -1 71 2 102 8 43 6 64 6 82 -4 23 -12 24 -13 5 -24 -16 -10 -19 -9 -19 4 0 8 -4 13 -9 10 -11 -7 -11 -56 0 -78 13 -24 -8 -34 -31 -13 -14 13 -19 13 -23 3 -3 -9 -7 -8 -12 6 -4 10 -4 21 2 25 10 7 25 41 18 41 -3 0 -15 -10 -26 -21 -18 -18 -20 -25 -10 -40 15 -25 14 -28 -8 -22 -10 2 -24 17 -31 31 -11 26 -12 26 -26 7 -8 -10 -14 -14 -14 -9 0 5 -9 10 -20 10 -29 0 -25 -13 10 -31 38 -20 30 -36 -13 -29 -28 4 -26 2 13 -14 49 -21 69 -54 28 -46 -13 2 -17 1 -9 -2 24 -11 62 -57 57 -69 -2 -6 3 -20 11 -30 15 -19 15 -19 10 3 -4 19 -3 21 9 11 8 -6 14 -8 14 -3 0 15 -17 36 -26 34 -5 -1 -10 3 -12 9 -2 6 1 11 6 11 5 0 9 11 8 24 -1 16 -6 23 -17 21 -10 -2 -20 9 -28 32 -15 41 -10 49 21 32 12 -7 26 -12 30 -11 4 1 5 -7 3 -18 -2 -11 0 -22 6 -25 5 -4 9 -1 9 4 0 6 8 11 18 11 23 1 54 25 44 36 -4 4 1 2 11 -5 9 -8 20 -11 24 -7 4 3 -2 12 -12 20 -14 10 -15 15 -5 21 9 5 11 4 6 -3 -4 -7 -5 -12 -2 -12 3 0 10 9 16 21 9 15 8 24 -1 35 -10 12 -9 13 4 8 13 -5 18 3 23 35 5 33 11 41 28 42 11 0 29 2 39 4 63 12 157 8 157 -6 0 -7 -10 -9 -25 -7 -14 3 -25 1 -25 -3 0 -5 7 -9 15 -9 9 0 18 -7 21 -15 4 -8 12 -15 18 -15 7 0 32 -19 55 -41 23 -23 45 -39 48 -35 3 3 1 12 -5 19 -7 8 -9 17 -5 20 3 4 1 7 -5 7 -5 0 -12 -6 -14 -12 -3 -8 -9 -5 -16 9 -8 15 -9 24 -2 28 6 4 9 1 8 -7 -4 -19 54 -11 70 10 6 9 12 11 12 5 0 -6 9 -9 20 -6 11 3 20 10 20 15 0 5 -4 6 -10 3 -5 -3 -10 2 -10 13 0 10 -7 19 -15 19 -8 0 -13 -2 -11 -5 7 -6 -26 -38 -45 -45 -9 -3 -22 0 -28 6 -9 9 -14 9 -19 0 -5 -8 -13 -9 -22 -3 -13 8 -13 10 1 10 9 0 16 7 16 15 0 8 -6 15 -13 15 -21 0 -24 28 -3 33 11 3 22 17 25 35 4 18 12 29 21 28 9 0 18 4 20 10 2 7 -21 10 -71 9 -57 -1 -73 2 -69 12 3 7 10 13 15 13 6 0 8 6 5 14 -8 20 15 37 33 26 20 -13 33 -12 24 1 -5 8 6 9 35 4 52 -9 75 -13 81 -15 3 -1 11 -3 19 -4 25 -2 23 -22 -3 -34 -23 -10 -24 -14 -15 -42 14 -38 21 -42 53 -30 16 6 27 6 31 0 4 -6 16 -10 27 -10 12 0 18 3 14 8 -4 4 -12 7 -18 7 -6 0 -17 10 -25 21 -13 20 -12 21 13 16 17 -3 25 -1 21 5 -4 6 -20 13 -37 17 -31 6 -33 26 -4 26 29 0 5 16 -45 30 -29 8 -46 17 -40 21 6 4 9 12 5 18 -5 7 -12 7 -26 -1 -10 -7 -17 -15 -15 -18 2 -3 -12 -4 -31 -2 -26 3 -34 8 -29 19 3 9 0 22 -6 29 -9 11 -8 14 4 14 8 0 20 7 27 15 15 19 9 19 -34 1 -32 -13 -34 -13 -47 10 -7 13 -16 24 -21 24 -5 0 -6 -6 -2 -12 6 -10 4 -10 -7 0 -14 13 -159 17 -159 4 0 -4 19 -6 43 -4 23 3 38 1 34 -4 -12 -12 -107 -14 -107 -2 0 5 5 6 10 3 6 -3 10 -1 10 5 0 7 -6 10 -12 7 -7 -2 -12 -14 -11 -25 2 -14 -6 -28 -22 -38 -29 -19 -51 -11 -32 13 40 51 79 84 92 80 9 -4 12 -1 8 9 -7 18 -28 17 -72 -1z m49 1 c0 -2 -7 -7 -16 -10 -8 -3 -12 -2 -9 4 6 10 25 14 25 6z m-40 -20 c0 -3 -4 -8 -10 -11 -5 -3 -10 -1 -10 4 0 6 5 11 10 11 6 0 10 -2 10 -4z m240 -59 c0 -7 9 -20 20 -30 26 -22 17 -45 -17 -39 -18 3 -24 1 -19 -7 4 -6 3 -11 -3 -11 -5 0 -11 4 -13 9 -3 10 -22 14 -51 12 -11 0 -15 -6 -11 -12 4 -8 0 -8 -15 0 -11 7 -21 14 -21 17 0 3 5 2 11 -2 6 -3 15 -1 19 7 5 7 27 13 49 14 22 1 44 4 47 8 8 8 -26 12 -66 8 -31 -3 -19 10 23 25 44 16 47 16 47 1z m-135 -17 c-7 -11 -55 -9 -55 2 0 4 14 8 31 8 17 0 28 -4 24 -10z m-95 -29 c-10 -7 -1 -11 30 -13 40 -3 36 -4 -33 -13 -66 -9 -77 -8 -75 4 3 15 36 28 73 30 16 1 17 -1 5 -8z m183 -48 c-7 -2 -19 -2 -25 0 -7 3 -2 5 12 5 14 0 19 -2 13 -5z m-103 -8 c0 -2 -15 -12 -32 -20 l-33 -16 24 21 c22 19 41 26 41 15z m-286 -76 c-16 -17 -38 -35 -49 -40 -11 -6 0 8 25 30 54 48 65 53 24 10z m341 5 c-11 -8 -27 -13 -35 -11 -9 2 -21 -2 -28 -10 -14 -15 -52 -18 -52 -4 0 5 7 14 15 21 11 9 15 9 15 1 0 -8 6 -9 18 -3 9 5 23 7 30 5 6 -3 12 0 12 5 0 11 31 22 40 14 3 -2 -4 -10 -15 -18z m123 6 c6 0 12 -3 12 -7 0 -5 -23 -6 -51 -4 -36 2 -49 0 -45 -8 4 -6 0 -11 -9 -11 -8 0 -18 -7 -21 -15 -4 -10 -18 -14 -43 -14 -30 2 -31 3 -8 6 15 2 27 10 27 17 0 22 67 48 105 40 11 -2 26 -4 33 -4z m-335 -97 c-7 -2 -21 -2 -30 0 -10 3 -4 5 12 5 17 0 24 -2 18 -5z m45 -91 c2 -7 -3 -12 -10 -12 -8 0 -15 7 -15 15 0 18 19 15 25 -3z m-128 -142 c0 -5 -2 -10 -4 -10 -3 0 -8 5 -11 10 -3 6 -1 10 4 10 6 0 11 -4 11 -10z" fill="#3cd070"/>
<path d="M3055 2700 c10 -11 20 -20 23 -20 3 0 -3 9 -13 20 -10 11 -20 20 -23 20 -3 0 3 -9 13 -20z" fill="#3cd070"/>
<path d="M3884 2675 c3 -11 19 -72 35 -135 36 -140 50 -231 55 -373 2 -59 7 -111 11 -115 11 -10 -3 281 -15 312 -5 14 -11 48 -12 76 -2 27 -6 50 -9 50 -3 0 -16 39 -29 88 -13 48 -27 94 -32 102 -7 11 -8 10 -4 -5z" fill="#3cd070"/>
<path d="M1880 2661 c0 -5 9 -11 20 -14 24 -6 27 8 4 17 -21 8 -24 8 -24 -3z" fill="#3cd070"/>
<path d="M3095 2646 c10 -14 19 -26 22 -26 7 0 -17 39 -28 46 -6 3 -3 -5 6 -20z" fill="#3cd070"/>
<path d="M2573 2643 c-15 -5 -17 -23 -4 -23 5 0 11 7 15 15 3 8 4 15 3 14 -1 0 -8 -3 -14 -6z" fill="#3cd070"/>
<path d="M2595 2610 c-3 -5 -1 -10 4 -10 6 0 11 5 11 10 0 6 -2 10 -4 10 -3 0 -8 -4 -11 -10z" fill="#3cd070"/>
<path d="M3152 2545 c12 -24 23 -43 26 -41 4 5 -36 86 -43 86 -3 0 5 -20 17 -45z" fill="#3cd070"/>
<path d="M3771 2494 c0 -11 3 -14 6 -6 3 7 2 16 -1 19 -3 4 -6 -2 -5 -13z" fill="#3cd070"/>
<path d="M2607 2463 c-12 -11 -8 -23 8 -23 8 0 15 7 15 15 0 16 -12 20 -23 8z" fill="#3cd070"/>
<path d="M3981 2444 c0 -11 3 -14 6 -6 3 7 2 16 -1 19 -3 4 -6 -2 -5 -13z" fill="#3cd070"/>
<path d="M3782 2430 c0 -14 2 -19 5 -12 2 6 2 18 0 25 -3 6 -5 1 -5 -13z" fill="#3cd070"/>
<path d="M2575 2410 c19 -21 66 -24 58 -4 -2 7 -15 10 -29 8 -13 -2 -24 0 -24 6 0 5 -5 10 -12 10 -6 0 -3 -8 7 -20z" fill="#3cd070"/>
<path d="M3991 2404 c0 -11 3 -14 6 -6 3 7 2 16 -1 19 -3 4 -6 -2 -5 -13z" fill="#3cd070"/>
<path d="M2735 2400 c3 -5 8 -10 11 -10 2 0 4 5 4 10 0 6 -5 10 -11 10 -5 0 -7 -4 -4 -10z" fill="#3cd070"/>
<path d="M1665 2380 c-4 -6 5 -10 19 -10 14 0 26 5 26 10 0 6 -9 10 -19 10 -11 0 -23 -4 -26 -10z" fill="#3cd070"/>
<path d="M3792 2365 c0 -16 2 -22 5 -12 2 9 2 23 0 30 -3 6 -5 -1 -5 -18z" fill="#3cd070"/>
<path d="M1720 2370 c0 -5 12 -10 28 -10 21 0 24 2 12 10 -20 13 -40 13 -40 0z" fill="#3cd070"/>
<path d="M2355 2370 c-3 -4 -15 -6 -27 -2 -14 3 -19 1 -14 -6 3 -6 -2 -13 -11 -15 -10 -2 -4 -2 12 1 17 3 49 6 73 5 49 -1 49 0 5 15 -18 6 -35 7 -38 2z" fill="#3cd070"/>
<path d="M2695 2370 c3 -5 8 -10 11 -10 2 0 4 5 4 10 0 6 -5 10 -11 10 -5 0 -7 -4 -4 -10z" fill="#3cd070"/>
<path d="M2550 2360 c0 -5 7 -10 15 -10 8 0 15 5 15 10 0 6 -7 10 -15 10 -8 0 -15 -4 -15 -10z" fill="#3cd070"/>
<path d="M4001 2354 c0 -11 3 -14 6 -6 3 7 2 16 -1 19 -3 4 -6 -2 -5 -13z" fill="#3cd070"/>
<path d="M2910 2350 c0 -5 5 -10 10 -10 6 0 15 -11 20 -25 10 -26 30 -34 30 -12 0 14 -41 57 -53 57 -4 0 -7 -4 -7 -10z" fill="#3cd070"/>
<path d="M2759 2335 c-4 -5 -7 -23 -7 -39 0 -23 2 -26 10 -12 10 18 7 67 -3 51z" fill="#3cd070"/>
<path d="M1536 2322 c-6 -10 71 -9 81 1 3 4 -12 7 -35 7 -22 0 -43 -4 -46 -8z" fill="#3cd070"/>
<path d="M2906 2313 c5 -5 12 -12 16 -18 4 -6 8 -2 8 8 0 9 -7 17 -17 17 -9 0 -12 -3 -7 -7z" fill="#3cd070"/>
<path d="M3823 2230 c0 -47 2 -66 4 -42 2 23 2 61 0 85 -2 23 -4 4 -4 -43z" fill="#3cd070"/>
<path d="M3800 2275 c-3 -63 2 -165 9 -192 5 -16 6 21 4 87 -5 116 -10 161 -13 105z" fill="#3cd070"/>
<path d="M4012 2275 c0 -16 2 -22 5 -12 2 9 2 23 0 30 -3 6 -5 -1 -5 -18z" fill="#3cd070"/>
<path d="M3233 2230 c0 -36 2 -50 4 -32 2 17 2 47 0 65 -2 17 -4 3 -4 -33z" fill="#3cd070"/>
<path d="M1451 2231 c-11 -11 -23 -16 -27 -13 -5 4 -2 -1 5 -10 13 -18 51 -25 51 -10 0 4 -5 13 -12 20 -9 9 -7 12 9 12 12 0 25 5 28 10 11 18 -35 10 -54 -9z" fill="#3cd070"/>
<path d="M2660 2199 c0 -5 5 -7 10 -4 6 3 10 8 10 11 0 2 -4 4 -10 4 -5 0 -10 -5 -10 -11z" fill="#3cd070"/>
<path d="M1121 2183 c0 -12 2 -13 6 -5 4 10 8 10 19 1 12 -10 13 -9 8 5 -8 21 -34 21 -33 -1z" fill="#3cd070"/>
<path d="M4024 2115 c0 -49 1 -71 3 -48 2 23 2 64 0 90 -2 26 -3 8 -3 -42z" fill="#3cd070"/>
<path d="M1480 2172 c0 -17 27 -33 44 -26 9 3 16 10 16 15 0 13 -14 11 -29 -3 -10 -11 -12 -10 -9 1 2 7 -3 16 -9 18 -7 3 -13 0 -13 -5z" fill="#3cd070"/>
<path d="M1315 2150 c3 -5 8 -10 11 -10 2 0 4 5 4 10 0 6 -5 10 -11 10 -5 0 -7 -4 -4 -10z" fill="#3cd070"/>
<path d="M1987 2142 c-21 -13 -25 -21 -20 -44 5 -24 0 -34 -26 -57 -33 -30 -42 -54 -14 -44 15 6 15 4 0 -23 -9 -16 -28 -60 -42 -99 -22 -63 -23 -71 -9 -82 19 -14 30 -138 14 -148 -6 -3 -10 -15 -10 -25 0 -11 -9 -24 -20 -30 -11 -6 -20 -18 -20 -26 0 -8 4 -12 10 -9 5 3 7 0 4 -8 -6 -15 37 -71 66 -87 16 -9 18 -6 16 15 -1 14 -10 33 -19 43 -27 30 -20 38 9 11 24 -21 25 -22 14 -3 -11 19 -10 24 8 44 11 12 18 29 15 36 -3 8 0 20 6 28 6 7 7 16 3 20 -4 4 -2 6 4 4 7 -1 21 8 32 20 13 14 26 21 33 16 8 -4 9 -3 5 5 -4 6 0 18 9 27 21 21 32 10 14 -13 -13 -17 -13 -17 7 0 25 21 27 46 3 42 -12 -3 -16 1 -12 11 3 8 12 13 20 10 8 -3 12 -2 8 3 -5 10 46 51 63 51 6 0 13 14 17 30 4 17 11 28 16 24 5 -3 9 4 9 16 0 12 4 19 8 16 5 -3 9 1 9 9 0 8 -5 13 -11 12 -5 -1 -13 12 -18 28 l-7 30 3 -32 c2 -22 -2 -33 -11 -33 -7 0 -14 -6 -14 -12 -2 -22 -5 -32 -13 -50 -15 -32 -22 -19 -16 30 3 29 10 46 18 45 7 -2 13 4 13 12 1 8 2 21 3 28 2 16 -38 47 -61 47 -10 0 -25 -6 -32 -12 -11 -11 -13 -7 -8 23 4 28 -1 44 -22 76 -27 40 -28 41 -54 25z m18 -118 c0 -16 -3 -32 -8 -35 -4 -3 -13 -34 -19 -70 -9 -44 -14 -56 -16 -37 -2 15 4 55 12 88 9 33 13 67 9 76 -4 11 -2 15 8 12 7 -2 13 -18 14 -34z m115 -50 c0 -8 -5 -12 -10 -9 -6 4 -8 11 -5 16 9 14 15 11 15 -7z" fill="#3cd070"/>
<path d="M3221 2124 c0 -11 3 -14 6 -6 3 7 2 16 -1 19 -3 4 -6 -2 -5 -13z" fill="#3cd070"/>
<path d="M2671 2114 c0 -11 3 -14 6 -6 3 7 2 16 -1 19 -3 4 -6 -2 -5 -13z" fill="#3cd070"/>
<path d="M1302 2098 c3 -7 15 -14 29 -16 23 -2 23 -2 5 13 -24 18 -39 20 -34 3z" fill="#3cd070"/>
<path d="M3048 2073 c7 -3 16 -2 19 1 4 3 -2 6 -13 5 -11 0 -14 -3 -6 -6z" fill="#3cd070"/>
<path d="M3881 1993 c-23 -160 -42 -247 -78 -358 -84 -263 -219 -466 -451 -679 -43 -39 -52 -57 -29 -55 36 2 91 44 206 158 46 47 81 76 76 65 -4 -10 -9 -29 -9 -41 -1 -11 -4 -19 -9 -16 -4 2 -10 -3 -13 -11 -3 -9 -12 -16 -19 -16 -17 0 -28 -30 -12 -31 7 0 2 -4 -10 -9 -17 -7 -21 -15 -18 -46 2 -20 9 -40 15 -44 7 -5 6 -11 -5 -20 -16 -13 -15 -14 -19 64 -2 30 -23 30 -43 -1 -23 -36 -35 -48 -50 -49 -7 -1 -20 -2 -28 -2 -8 -1 -15 -9 -15 -17 0 -9 -6 -12 -15 -9 -10 4 -20 -4 -30 -27 -8 -19 -14 -28 -15 -22 0 8 -9 11 -22 9 -19 -3 -23 -9 -21 -36 1 -25 -1 -30 -9 -19 -8 12 -10 12 -15 0 -4 -10 -9 -8 -19 10 -9 17 -13 19 -14 8 0 -9 -7 -19 -15 -23 -8 -3 -15 -12 -15 -21 0 -18 -17 -20 -22 -3 -7 20 -37 1 -33 -22 3 -16 1 -19 -12 -11 -17 9 -83 -23 -83 -40 0 -5 -5 -9 -11 -9 -5 0 -7 5 -4 10 9 14 -1 12 -35 -5 -17 -9 -30 -12 -30 -9 0 4 -9 -1 -20 -11 -11 -10 -17 -21 -15 -26 3 -4 0 -11 -6 -15 -7 -4 -9 -3 -5 4 9 15 -7 23 -24 12 -9 -5 -19 -5 -27 2 -16 13 -46 -8 -37 -26 3 -6 0 -4 -8 5 -11 13 -59 18 -78 9 -3 -1 -9 -2 -13 -1 -5 1 -5 -4 -1 -11 5 -9 3 -9 -9 1 -15 12 -21 11 -42 -9 l-24 -22 6 22 c4 16 3 21 -5 16 -7 -4 -12 -2 -12 3 0 6 -7 11 -15 11 -8 0 -15 -4 -15 -8 0 -5 -11 -15 -25 -22 -13 -7 -22 -17 -19 -21 3 -5 -6 -8 -20 -7 -30 3 -32 7 -10 34 14 17 15 17 10 1 -3 -11 -2 -16 4 -12 12 8 13 45 2 45 -5 0 -17 -16 -28 -35 -12 -22 -21 -30 -25 -23 -6 9 -13 7 -28 -6 -11 -10 -18 -23 -14 -29 3 -5 1 -7 -5 -4 -5 4 -8 16 -5 27 3 12 -1 22 -11 26 -9 3 -13 10 -10 15 3 5 1 9 -5 9 -17 0 -33 -38 -19 -46 6 -4 8 -3 5 3 -3 5 0 10 8 10 12 0 12 -5 -1 -28 -7 -15 -11 -36 -8 -46 5 -17 5 -17 -6 0 -6 9 -8 26 -5 37 5 14 2 20 -10 20 -8 0 -20 11 -25 25 -5 14 -14 25 -20 25 -6 0 -8 5 -5 10 3 6 1 10 -5 10 -6 0 -13 -7 -16 -15 -4 -8 -10 -12 -15 -9 -5 3 -18 -10 -29 -28 -22 -36 -26 -53 -10 -43 17 10 11 -12 -7 -26 -14 -12 -16 -12 -8 0 5 10 4 12 -3 7 -19 -12 -14 -20 20 -35 28 -12 32 -12 43 3 11 15 13 15 19 1 4 -12 10 -14 25 -5 13 6 22 7 26 0 3 -5 19 -8 35 -6 17 2 30 -1 30 -6 0 -5 6 -6 13 -1 16 10 67 13 67 3 0 -4 18 -7 40 -7 23 1 40 7 40 14 0 6 5 15 12 19 8 5 9 0 5 -15 -3 -14 -1 -21 6 -18 7 2 11 14 9 25 -2 12 2 22 8 22 6 0 8 -5 4 -11 -10 -17 18 -30 35 -16 12 10 13 9 6 -2 -6 -11 -4 -13 7 -9 9 4 37 10 63 13 25 4 49 13 52 20 2 8 11 16 20 19 11 4 13 2 9 -9 -4 -11 1 -15 20 -15 13 0 27 6 30 13 2 7 16 14 30 15 14 1 35 7 47 14 12 7 26 11 31 10 5 -2 16 4 26 13 9 8 19 12 22 9 7 -7 88 33 88 44 0 4 10 8 22 9 26 2 74 37 71 52 -2 6 4 8 11 5 18 -7 79 24 71 35 -3 5 3 7 12 5 10 -2 29 5 43 17 14 11 19 17 11 13 -9 -5 -12 -3 -7 5 4 6 12 9 17 5 14 -8 121 75 113 88 -4 7 -2 8 5 4 7 -5 37 18 79 60 37 37 57 59 45 49 -20 -16 -23 -16 -23 -2 0 8 5 17 10 19 9 3 16 37 19 92 1 5 7 3 15 -3 15 -12 32 1 22 17 -2 4 2 18 10 32 15 25 15 25 9 -10 -4 -19 -16 -43 -28 -53 -16 -14 -18 -20 -8 -27 8 -4 10 -13 6 -20 -6 -9 -9 -9 -16 1 -6 10 -9 10 -9 2 0 -27 19 -21 46 14 15 20 22 33 16 29 -14 -8 -15 3 -3 23 5 7 13 11 19 7 5 -3 18 6 27 20 9 15 13 24 7 20 -5 -3 -12 1 -15 8 -4 10 0 14 13 11 11 -2 23 1 26 7 5 7 2 8 -6 3 -9 -6 -12 -4 -8 6 2 8 -3 21 -13 30 -16 16 -18 15 -28 -7 -6 -13 -8 -32 -5 -41 3 -11 0 -10 -7 3 -9 17 -7 27 7 49 17 26 18 26 31 9 14 -18 15 -18 29 0 8 11 14 27 14 35 0 13 2 13 9 3 7 -11 9 -10 15 3 3 9 10 14 15 10 5 -3 13 0 17 6 5 8 3 9 -5 5 -16 -10 -11 24 7 42 6 7 12 22 12 32 0 10 5 22 10 25 6 3 10 14 9 23 0 14 -2 13 -9 -3 -5 -11 -9 -15 -9 -8 -1 20 11 43 19 38 5 -3 12 0 16 6 4 7 3 9 -3 6 -6 -4 -13 0 -17 8 -5 15 -3 26 11 63 3 9 7 19 8 22 1 3 6 16 12 30 21 52 57 157 69 205 l13 50 -6 -50 c-3 -27 -2 -47 2 -43 3 3 8 42 11 85 2 43 6 111 8 150 3 40 1 75 -5 78 -5 4 -9 -15 -9 -44 0 -27 -4 -51 -9 -53 -5 -1 -12 -39 -14 -83 -3 -44 -9 -96 -13 -115 -6 -29 -9 -31 -15 -15 -7 18 -8 18 -8 2 -1 -10 -5 -16 -10 -12 -6 3 -4 24 4 52 8 26 12 57 9 69 -3 12 -1 30 4 41 12 23 1 195 -13 200 -6 2 -16 -33 -24 -84z m-128 -723 c-3 -11 -9 -17 -15 -14 -5 3 -4 12 3 20 16 19 18 18 12 -6z m-173 -113 c0 -2 -10 -12 -22 -23 l-23 -19 19 23 c18 21 26 27 26 19z m134 -42 c-4 -8 -11 -12 -16 -9 -6 4 -5 10 3 15 19 12 19 11 13 -6z m-264 -99 c0 -2 -8 -10 -17 -17 -16 -13 -17 -12 -4 4 13 16 21 21 21 13z m140 -59 c0 -2 -12 -14 -27 -28 l-28 -24 24 28 c23 25 31 32 31 24z m-119 -70 c-10 -9 -11 -8 -5 6 3 10 9 15 12 12 3 -3 0 -11 -7 -18z m-54 -19 c-3 -8 -6 -5 -6 6 -1 11 2 17 5 13 3 -3 4 -12 1 -19z m43 -23 c9 5 11 4 6 -3 -11 -18 -36 -14 -36 6 0 13 2 14 9 3 5 -8 14 -10 21 -6z m-40 -25 c0 -11 -4 -20 -9 -20 -5 0 -7 9 -4 20 3 11 7 20 9 20 2 0 4 -9 4 -20z m-108 -62 c-6 -6 -7 0 -4 19 5 21 7 23 10 9 2 -10 0 -22 -6 -28z m-132 -89 c-7 -11 -14 -18 -17 -15 -3 3 0 12 7 21 18 21 23 19 10 -6z m-30 -9 c0 -5 -2 -10 -4 -10 -3 0 -8 5 -11 10 -3 6 -1 10 4 10 6 0 11 -4 11 -10z m-137 -23 c-3 -4 -8 -6 -11 -3 -3 3 -11 1 -19 -5 -13 -11 -19 1 -7 14 9 9 43 4 37 -6z m47 10 c0 -2 -16 -20 -35 -41 -40 -44 -48 -33 -9 13 22 26 44 40 44 28z m50 -21 c0 -2 -7 -7 -16 -10 -8 -3 -12 -2 -9 4 6 10 25 14 25 6z m-776 -50 c-3 -9 -10 -16 -15 -16 -6 0 -5 9 1 21 13 24 24 20 14 -5z m412 -2 c-7 -19 3 -18 26 3 10 9 18 11 18 5 0 -6 -11 -19 -24 -27 -13 -9 -27 -26 -31 -38 -4 -14 -8 -17 -12 -9 -3 7 0 19 6 26 16 20 3 50 -15 35 -19 -16 -18 -4 2 15 18 18 38 11 30 -10z m157 1 c-3 -9 -8 -14 -10 -11 -3 3 -2 9 2 15 9 16 15 13 8 -4z m-541 -37 c-7 -7 -12 -8 -12 -2 0 14 12 26 19 19 2 -3 -1 -11 -7 -17z m271 7 c-3 -9 -8 -14 -10 -11 -3 3 -2 9 2 15 9 16 15 13 8 -4z m-133 -25 c-6 -11 -16 -20 -22 -20 -6 0 -3 9 7 20 10 11 20 20 22 20 2 0 -1 -9 -7 -20z m-60 6 c0 -3 -4 -8 -10 -11 -5 -3 -10 -1 -10 4 0 6 5 11 10 11 6 0 10 -2 10 -4z m30 0 c0 -3 -4 -8 -10 -11 -5 -3 -10 -1 -10 4 0 6 5 11 10 11 6 0 10 -2 10 -4z" fill="#3cd070"/>
<path d="M1111 2054 c0 -11 3 -14 6 -6 3 7 2 16 -1 19 -3 4 -6 -2 -5 -13z" fill="#3cd070"/>
<path d="M1330 2064 c0 -3 5 -14 10 -25 10 -18 -3 -29 -13 -11 -2 4 -2 1 0 -7 2 -8 -4 -25 -13 -38 -8 -14 -13 -28 -9 -31 4 -4 11 2 18 13 6 11 24 32 40 48 19 18 24 27 14 27 -8 0 -17 7 -21 15 -5 14 -26 22 -26 9z" fill="#3cd070"/>
<path d="M1450 2059 c0 -5 5 -7 10 -4 6 3 10 8 10 11 0 2 -4 4 -10 4 -5 0 -10 -5 -10 -11z" fill="#3cd070"/>
<path d="M3792 2040 c1 -19 -2 -45 -6 -57 -4 -12 -3 -24 2 -27 14 -8 22 58 12 91 -9 27 -9 27 -8 -7z" fill="#3cd070"/>
<path d="M1380 2056 c0 -8 51 -13 56 -5 3 5 -9 9 -25 9 -17 0 -31 -2 -31 -4z" fill="#3cd070"/>
<path d="M3031 2047 c-19 -19 -13 -46 9 -40 12 3 20 0 20 -6 0 -7 -4 -9 -10 -6 -5 3 -10 2 -10 -4 0 -5 5 -13 11 -17 6 -3 9 -17 6 -30 -4 -24 3 -31 17 -17 3 4 15 8 26 10 15 2 20 -3 21 -20 0 -22 0 -22 10 2 5 13 7 27 3 30 -9 10 -28 8 -36 -4 -5 -6 -8 -3 -8 8 0 9 -5 16 -11 15 -6 -2 -14 3 -16 10 -3 8 1 10 11 6 11 -4 16 0 16 12 0 15 -2 16 -9 5 -7 -11 -10 -9 -16 8 -3 11 -4 25 -1 30 9 14 -20 21 -33 8z" fill="#3cd070"/>
<path d="M1560 2024 c-55 -20 -128 -77 -122 -96 1 -5 -8 -23 -22 -41 -30 -41 -53 -155 -37 -186 7 -12 16 -21 21 -21 13 0 36 48 44 94 8 40 78 146 98 146 6 0 8 3 5 7 -4 3 20 32 53 64 67 65 61 70 -40 33z" fill="#3cd070"/>
<path d="M1260 2022 c0 -5 9 -12 21 -15 13 -3 19 -1 16 6 -5 15 -37 22 -37 9z" fill="#3cd070"/>
<path d="M1265 1990 c-3 -5 -1 -10 4 -10 6 0 11 5 11 10 0 6 -2 10 -4 10 -3 0 -8 -4 -11 -10z" fill="#3cd070"/>
<path d="M1374 1986 c-10 -8 -16 -17 -13 -20 3 -3 14 1 25 8 10 8 16 17 13 20 -3 3 -14 -1 -25 -8z" fill="#3cd070"/>
<path d="M3000 1978 c0 -13 -3 -34 -6 -48 -6 -25 -6 -25 10 -5 10 11 15 13 11 5 -4 -8 1 -6 9 4 18 22 21 40 6 31 -5 -3 -10 1 -10 9 0 8 -4 18 -10 21 -6 3 -10 -4 -10 -17z" fill="#3cd070"/>
<path d="M1370 1935 c0 -11 -8 -15 -27 -13 -24 3 -28 -1 -31 -24 -2 -16 1 -28 7 -28 6 0 7 -7 4 -17 -4 -11 -3 -14 5 -9 7 4 10 18 8 30 -4 20 2 26 35 39 42 16 52 37 19 37 -11 0 -20 -7 -20 -15z" fill="#3cd070"/>
<path d="M4012 1930 c0 -14 2 -19 5 -12 2 6 2 18 0 25 -3 6 -5 1 -5 -13z" fill="#3cd070"/>
<path d="M1789 1893 c-26 -28 -44 -61 -41 -75 1 -5 -3 -8 -8 -8 -6 0 -29 -18 -51 -40 -38 -37 -40 -42 -38 -97 2 -68 -17 -168 -37 -200 -16 -25 -57 -28 -76 -6 -18 22 -29 14 -26 -19 3 -35 24 -46 56 -32 9 4 21 6 25 5 4 -1 28 19 52 45 40 41 46 44 60 31 18 -19 20 -37 3 -37 -10 0 -9 -3 1 -9 11 -7 11 -9 0 -14 -10 -4 -9 -6 4 -6 9 -1 17 -9 17 -18 0 -14 2 -15 9 -4 7 11 9 11 14 0 3 -11 9 -9 21 6 15 20 15 20 16 -2 0 -13 -6 -23 -14 -23 -17 0 -26 -32 -15 -53 5 -8 24 -21 43 -27 23 -7 36 -19 40 -35 4 -14 21 -35 40 -47 18 -12 43 -36 55 -52 44 -64 118 -135 166 -161 28 -15 66 -42 85 -59 19 -17 49 -37 67 -45 22 -9 30 -18 26 -29 -4 -13 -3 -14 5 -4 8 12 15 11 40 -2 87 -45 266 -66 400 -47 40 6 52 4 52 -6 0 -7 -5 -13 -12 -13 -6 0 -9 -3 -5 -6 9 -9 48 6 42 17 -8 11 -7 11 34 -1 19 -5 31 -7 28 -3 -9 8 57 40 128 63 75 24 172 74 200 104 6 6 32 29 60 51 27 22 68 57 90 77 22 21 46 36 53 33 7 -3 11 -1 8 4 -3 4 3 16 14 26 11 10 20 15 20 12 0 -7 48 43 90 92 11 13 20 32 20 43 0 10 5 18 10 18 6 0 10 6 10 14 0 7 7 19 15 26 24 20 116 218 95 205 -6 -3 -10 -10 -10 -15 0 -14 -95 -175 -138 -232 -84 -113 -269 -269 -403 -341 -35 -19 -108 -49 -161 -68 -53 -18 -95 -35 -93 -37 2 -2 38 8 81 22 42 15 78 25 81 23 6 -7 -87 -44 -167 -65 -177 -49 -333 -51 -474 -8 -92 29 -203 89 -211 116 -4 11 -13 20 -20 20 -40 0 -175 184 -175 238 0 12 -4 24 -10 27 -6 3 -7 -1 -4 -9 3 -9 3 -16 0 -16 -14 0 -35 69 -42 133 -5 55 -12 70 -35 93 -16 15 -29 23 -29 16 0 -6 -7 -9 -15 -6 -8 4 -12 10 -9 15 3 5 0 9 -5 9 -6 0 -10 3 -9 8 1 4 -2 28 -6 55 -6 31 -13 47 -23 47 -9 0 -11 -5 -7 -12 11 -17 12 -48 3 -48 -4 0 -11 9 -14 20 -3 11 -11 20 -17 20 -6 0 -5 -7 3 -16 12 -15 11 -16 -9 -10 -26 9 -27 3 -7 -28 14 -21 14 -24 1 -29 -9 -4 -22 1 -31 9 -8 9 -15 11 -15 5 0 -6 -7 -8 -15 -5 -8 4 -21 2 -28 -4 -9 -8 -13 -1 -14 29 -2 21 2 39 8 39 5 0 9 -7 7 -16 -2 -10 5 -18 15 -20 16 -2 17 3 13 44 -5 43 -5 44 5 14 5 -19 14 -30 20 -26 8 4 7 9 -1 14 -8 5 -11 20 -8 39 2 17 1 31 -3 31 -5 0 -6 7 -3 15 4 8 10 13 14 10 4 -3 10 2 13 9 6 16 -16 40 -26 29 -4 -3 -6 5 -5 20 1 15 10 28 19 30 10 3 26 22 37 43 11 22 30 49 42 62 12 12 20 27 18 33 -2 5 -15 -3 -29 -18z m-102 -215 c-3 -8 -6 -5 -6 6 -1 11 2 17 5 13 3 -3 4 -12 1 -19z m346 -577 c-5 -6 -73 61 -73 71 0 5 17 -8 38 -29 21 -21 37 -40 35 -42z" fill="#3cd070"/>
<path d="M3040 1900 c0 -5 5 -10 11 -10 5 0 7 5 4 10 -3 6 -8 10 -11 10 -2 0 -4 -4 -4 -10z" fill="#3cd070"/>
<path d="M2221 1886 c0 -11 -13 -34 -28 -50 l-28 -31 34 31 c22 21 31 38 28 50 -4 18 -5 18 -6 0z" fill="#3cd070"/>
<path d="M3104 1878 c-4 -5 -3 -12 0 -15 3 -4 6 -1 6 6 0 7 4 10 9 6 5 -3 12 -2 15 3 3 5 -2 9 -10 9 -8 0 -17 -4 -20 -9z" fill="#3cd070"/>
<path d="M3005 1860 c-3 -5 -4 -14 0 -19 3 -5 1 -12 -5 -16 -16 -10 -11 -32 8 -32 43 0 46 -3 26 -19 -18 -14 -18 -15 4 -4 13 6 27 22 32 36 12 30 13 64 2 48 -4 -6 -18 -15 -30 -19 -21 -6 -23 -4 -17 14 6 21 -8 30 -20 11z m55 -60 c0 -5 -2 -10 -4 -10 -3 0 -8 5 -11 10 -3 6 -1 10 4 10 6 0 11 -4 11 -10z" fill="#3cd070"/>
<path d="M4002 1835 c0 -16 2 -22 5 -12 2 9 2 23 0 30 -3 6 -5 -1 -5 -18z" fill="#3cd070"/>
<path d="M1236 1831 c-4 -5 -2 -12 3 -15 5 -4 12 -2 15 3 4 5 2 12 -3 15 -5 4 -12 2 -15 -3z" fill="#3cd070"/>
<path d="M1737 1745 c-4 -8 -1 -17 6 -21 7 -4 9 -4 5 1 -4 4 -3 14 3 22 7 8 8 13 1 13 -5 0 -12 -7 -15 -15z" fill="#3cd070"/>
<path d="M2996 1693 c-6 -14 -5 -15 5 -6 7 7 10 15 7 18 -3 3 -9 -2 -12 -12z" fill="#3cd070"/>
<path d="M1774 1660 c3 -14 5 -28 5 -32 1 -5 8 -8 16 -8 20 0 19 10 -5 40 l-20 25 4 -25z" fill="#3cd070"/>
<path d="M2933 1673 c9 -2 23 -2 30 0 6 3 -1 5 -18 5 -16 0 -22 -2 -12 -5z" fill="#3cd070"/>
<path d="M3951 1614 c0 -11 3 -14 6 -6 3 7 2 16 -1 19 -3 4 -6 -2 -5 -13z" fill="#3cd070"/>
<path d="M1190 1611 c0 -6 8 -11 18 -11 13 0 14 -2 3 -9 -11 -7 -11 -9 0 -14 10 -4 9 -6 -3 -6 -10 -1 -18 4 -18 11 0 9 -3 9 -11 1 -6 -6 -18 -9 -25 -6 -17 6 -19 -25 -3 -47 8 -11 9 -8 4 14 -5 25 -4 28 8 18 8 -7 22 -10 31 -6 12 5 15 2 10 -10 -3 -9 -10 -14 -14 -11 -13 8 -18 -17 -9 -41 4 -12 6 -35 3 -51 -3 -22 1 -34 18 -49 22 -19 22 -19 8 0 -14 18 -13 19 3 13 11 -4 16 -3 12 4 -4 6 -13 8 -21 5 -8 -3 -14 1 -14 9 0 17 9 19 30 5 9 -6 20 -5 30 3 13 11 13 10 0 -7 -14 -17 -13 -18 6 -12 15 4 23 2 27 -8 7 -17 -23 -31 -33 -15 -5 6 -9 2 -13 -11 -3 -12 -10 -19 -16 -15 -16 9 -14 -11 2 -27 8 -7 12 -18 10 -25 -2 -6 1 -15 8 -19 8 -4 9 -3 5 4 -4 7 -2 12 3 12 6 0 11 7 11 15 0 9 10 20 23 25 17 7 18 9 5 9 -22 1 -24 21 -3 21 8 0 15 7 15 15 0 18 27 20 33 3 3 -10 7 -10 20 1 15 11 17 11 17 -2 0 -8 11 -22 25 -31 34 -22 48 -21 33 4 -9 13 -19 18 -33 14 -20 -5 -20 -5 -1 10 18 15 19 16 2 16 -12 0 -16 5 -12 15 4 11 -2 15 -22 14 -24 0 -25 -1 -7 -9 16 -7 17 -9 3 -9 -22 -1 -68 20 -68 31 0 4 4 8 9 8 5 0 18 3 28 6 16 5 16 4 -1 -10 -11 -9 -16 -16 -10 -16 15 0 30 14 37 33 3 9 11 17 17 17 14 0 13 -13 -2 -29 -11 -10 -9 -12 7 -9 12 2 19 10 17 20 -1 9 2 19 8 23 5 3 10 16 10 28 -1 20 -2 20 -11 5 -10 -18 -49 -25 -49 -9 0 4 -10 7 -22 6 -13 -1 -16 0 -7 2 21 5 32 40 13 40 -7 0 -11 -4 -8 -8 2 -4 0 -10 -5 -13 -16 -10 -18 28 -1 41 20 17 -1 16 -34 0 -14 -8 -23 -17 -19 -20 3 -4 -2 -7 -13 -7 -16 0 -17 -2 -4 -10 9 -6 10 -10 3 -10 -18 0 -26 19 -14 34 8 9 3 17 -19 30 -17 9 -30 12 -30 7z m80 -95 c-6 -8 -18 -12 -27 -9 -12 5 -14 1 -8 -15 4 -14 2 -22 -5 -22 -6 0 -8 5 -5 10 3 6 -4 10 -17 10 -20 1 -19 3 12 20 44 24 68 27 50 6z m25 -30 c-17 -12 -45 -12 -45 1 0 3 7 3 15 0 8 -4 17 -2 20 3 4 6 11 10 18 10 6 0 2 -6 -8 -14z" fill="#3cd070"/>
<path d="M1992 1530 c0 -14 2 -19 5 -12 2 6 2 18 0 25 -3 6 -5 1 -5 -13z" fill="#3cd070"/>
<path d="M1983 1435 c0 -22 2 -30 4 -17 2 12 2 30 0 40 -3 9 -5 -1 -4 -23z" fill="#3cd070"/>
<path d="M1990 1340 c0 -11 4 -20 9 -20 5 0 7 9 4 20 -3 11 -7 20 -9 20 -2 0 -4 -9 -4 -20z" fill="#3cd070"/>
<path d="M1295 1340 c-11 -5 -14 -9 -7 -9 6 -1 12 -6 12 -11 0 -6 -7 -10 -16 -8 -10 2 -19 -3 -22 -11 -3 -10 0 -12 11 -8 8 3 18 0 21 -8 2 -7 -2 -16 -10 -19 -9 -3 -12 -1 -9 4 3 6 -2 10 -11 10 -16 0 -16 -1 -1 -18 10 -10 17 -26 17 -34 0 -9 7 -18 15 -22 8 -3 12 -12 9 -20 -11 -28 8 -40 22 -15 7 13 13 18 14 11 0 -7 9 -11 23 -8 12 2 31 -2 42 -10 10 -8 13 -14 7 -14 -7 0 -12 -7 -12 -15 0 -22 -21 -18 -27 5 -6 22 -11 24 -32 11 -12 -8 -12 -12 2 -26 10 -9 17 -23 17 -31 0 -8 5 -14 10 -14 6 0 10 4 10 10 0 5 6 7 13 4 7 -2 26 2 41 9 21 12 24 16 11 21 -9 3 -14 10 -11 15 8 12 -3 41 -15 41 -6 0 -20 9 -32 21 -19 18 -20 19 -3 13 16 -6 18 -4 13 9 -5 12 -1 17 13 17 11 0 20 5 20 10 0 9 -54 15 -89 10 -10 -1 -9 4 4 16 25 26 65 30 65 7 0 -15 2 -16 10 -3 7 12 3 18 -21 28 -17 7 -34 11 -37 8 -3 -3 -11 3 -19 14 -15 22 -19 23 -48 10z m39 -16 c20 -19 20 -30 2 -37 -10 -4 -13 -1 -9 9 3 8 0 21 -7 29 -16 20 -6 19 14 -1z m23 -80 c-3 -3 -12 -4 -19 -1 -8 3 -5 6 6 6 11 1 17 -2 13 -5z" fill="#3cd070"/>
<path d="M1370 1340 c-13 -8 -12 -10 3 -10 9 0 17 5 17 10 0 12 -1 12 -20 0z" fill="#3cd070"/>
<path d="M2001 1284 c0 -11 3 -14 6 -6 3 7 2 16 -1 19 -3 4 -6 -2 -5 -13z" fill="#3cd070"/>
<path d="M1445 1220 c3 -5 -3 -10 -14 -10 -12 0 -21 -4 -21 -9 0 -10 19 -9 38 2 15 10 16 27 1 27 -5 0 -7 -4 -4 -10z" fill="#3cd070"/>
<path d="M1490 1222 c0 -7 -7 -12 -15 -12 -8 0 -15 -4 -15 -10 0 -5 4 -10 9 -10 13 0 35 29 27 37 -3 3 -6 1 -6 -5z" fill="#3cd070"/>
<path d="M2046 1177 c3 -10 9 -15 12 -12 3 3 0 11 -7 18 -10 9 -11 8 -5 -6z" fill="#3cd070"/>
<path d="M1477 1163 c-3 -5 6 -16 19 -26 18 -13 24 -15 24 -4 0 24 -33 47 -43 30z" fill="#3cd070"/>
<path d="M2075 1130 c10 -11 20 -20 23 -20 3 0 -3 9 -13 20 -10 11 -20 20 -23 20 -3 0 3 -9 13 -20z" fill="#3cd070"/>
<path d="M1537 1122 c-13 -14 -14 -21 -5 -30 17 -17 31 -15 25 3 -4 8 -2 17 3 20 12 8 13 25 2 25 -5 0 -16 -8 -25 -18z" fill="#3cd070"/>
<path d="M3370 1119 c0 -5 5 -7 10 -4 6 3 10 8 10 11 0 2 -4 4 -10 4 -5 0 -10 -5 -10 -11z" fill="#3cd070"/>
<path d="M1467 1106 c-12 -9 -14 -16 -8 -21 6 -3 11 -1 11 4 0 6 7 11 15 11 8 0 15 5 15 10 0 14 -11 12 -33 -4z" fill="#3cd070"/>
<path d="M1820 1105 c7 -9 10 -27 7 -44 -3 -15 -1 -33 6 -40 11 -11 47 -16 47 -6 0 15 -54 105 -62 105 -6 0 -5 -6 2 -15z" fill="#3cd070"/>
<path d="M1394 1059 c-6 -11 31 -65 66 -96 14 -12 27 -17 28 -12 7 18 22 8 22 -14 0 -13 9 -33 20 -45 11 -12 20 -26 20 -31 0 -6 16 -17 35 -26 19 -10 37 -26 41 -37 3 -11 19 -24 35 -30 16 -5 29 -14 29 -19 0 -5 6 -9 14 -9 8 0 18 -9 21 -20 3 -11 15 -20 25 -20 10 0 22 9 25 20 3 11 13 20 22 20 9 0 13 6 9 15 -3 8 0 14 6 12 6 -1 13 4 16 12 3 9 0 11 -8 6 -9 -6 -10 -3 -2 12 15 27 42 49 42 34 0 -6 -7 -14 -15 -17 -11 -5 -12 -11 -4 -25 6 -12 6 -19 0 -19 -10 0 -27 -39 -23 -53 1 -5 -2 -6 -7 -3 -5 3 -14 -1 -21 -9 -10 -12 -10 -18 0 -30 7 -8 16 -13 20 -10 5 3 15 -2 23 -10 21 -20 34 -19 40 5 6 22 -8 37 -16 18 -4 -10 -6 -10 -6 -1 -1 7 12 27 29 45 16 18 30 30 30 26 0 -4 -10 -17 -22 -28 -18 -16 -20 -23 -9 -29 8 -6 11 -16 6 -31 -6 -18 -4 -22 8 -17 10 4 24 -3 36 -18 21 -28 46 -32 55 -10 3 8 13 15 21 15 9 0 14 3 12 8 -2 4 6 18 18 30 l22 24 5 -26 c3 -14 1 -23 -3 -20 -5 3 -9 1 -9 -3 0 -5 -12 -15 -26 -24 -24 -15 -25 -17 -9 -33 10 -9 23 -15 31 -12 7 3 15 0 17 -7 7 -22 37 13 32 37 -4 15 3 26 20 39 14 10 25 13 25 8 0 -5 -10 -17 -21 -25 -21 -14 -21 -16 -5 -40 9 -15 12 -26 6 -26 -5 0 -1 -9 9 -19 12 -12 27 -17 40 -14 14 3 21 1 21 -8 0 -8 9 3 20 24 22 41 25 51 10 42 -5 -3 0 9 13 28 12 19 25 30 28 25 10 -15 20 7 13 26 -7 18 -24 22 -24 5 0 -5 -4 -7 -10 -4 -6 4 -7 -1 -3 -11 4 -12 2 -15 -8 -12 -8 3 -13 12 -11 22 2 9 0 16 -3 16 -10 0 -36 -28 -34 -37 3 -20 -2 -24 -16 -13 -16 13 -21 35 -6 26 5 -3 12 1 15 10 9 24 8 27 -10 20 -12 -5 -14 -1 -9 17 4 14 3 18 -3 9 -7 -10 -14 -10 -37 2 -16 8 -32 13 -37 10 -4 -3 -8 -1 -8 4 0 4 -17 7 -37 6 -21 -1 -32 0 -25 3 21 8 13 20 -18 26 -21 5 -28 11 -24 21 4 11 0 13 -15 9 -12 -3 -21 -1 -21 3 0 5 -5 16 -10 24 -7 12 -13 11 -36 -10 l-26 -25 6 30 c3 17 2 37 -4 45 -8 13 -10 13 -10 -1 0 -9 -8 -20 -17 -23 -10 -4 -14 -4 -10 0 8 8 -21 63 -47 87 -23 20 -40 22 -33 3 3 -7 0 -19 -6 -26 -9 -10 -9 -11 1 -6 7 5 12 1 12 -10 0 -16 1 -16 15 2 8 10 15 13 15 7 0 -7 -9 -18 -20 -25 -22 -14 -27 -54 -8 -60 8 -3 9 -11 3 -24 -7 -16 -10 -12 -18 24 -11 46 -31 59 -22 15 5 -26 5 -26 -4 -5 -6 12 -13 22 -16 22 -4 0 -3 -5 0 -10 3 -6 0 -13 -9 -16 -9 -3 -12 -12 -9 -22 4 -9 3 -14 -1 -10 -4 3 -11 22 -16 41 -6 27 -5 34 5 30 21 -7 55 34 55 67 0 32 -14 40 -24 14 -3 -8 -2 -12 4 -9 5 3 8 -3 7 -14 -1 -11 -3 -18 -6 -16 -2 3 -10 0 -18 -6 -9 -8 -13 -8 -13 -1 0 6 4 13 9 16 11 7 2 48 -13 58 -7 5 -5 8 5 8 9 0 22 7 29 15 9 10 9 15 1 15 -6 0 -11 -4 -11 -9 0 -5 -9 -7 -21 -4 -17 5 -20 2 -17 -18 2 -14 -2 -24 -10 -24 -7 0 -17 -7 -23 -15 -9 -12 -10 -12 -5 3 3 10 6 23 6 28 0 6 5 7 11 3 7 -4 10 -1 7 7 -3 8 -11 13 -17 12 -14 -4 -15 14 -1 22 6 3 10 1 10 -5 0 -6 5 -8 10 -5 6 3 10 10 10 16 0 12 -37 12 -45 -1 -3 -5 -13 -10 -21 -10 -8 0 -12 5 -9 10 4 6 10 8 15 5 11 -7 33 21 28 36 -2 7 -21 12 -41 13 -37 1 -49 -8 -24 -17 6 -3 2 -6 -11 -6 -13 -1 -20 3 -17 9 3 6 2 10 -4 10 -5 0 -13 -5 -16 -11 -4 -6 -13 -8 -19 -6 -7 3 -19 1 -27 -4 -9 -5 -16 -3 -20 8 -6 18 -36 26 -45 12z m106 -35 c0 -2 -7 -4 -15 -4 -8 0 -15 4 -15 10 0 5 7 7 15 4 8 -4 15 -8 15 -10z m-50 -4 c12 -8 11 -10 -7 -10 -13 0 -23 5 -23 10 0 13 11 13 30 0z m110 -5 c0 -5 -5 -17 -10 -25 -8 -12 -10 -11 -10 7 0 12 -6 23 -12 26 -7 3 -3 4 10 4 12 -1 22 -6 22 -12z m33 -54 c-6 -22 -29 -23 -29 -1 0 9 8 17 17 17 11 1 15 -4 12 -16z m72 -40 c-7 -23 -25 -29 -25 -8 0 14 21 39 28 33 2 -3 1 -14 -3 -25z m-91 -7 c24 -9 19 -19 -9 -19 -25 0 -31 6 -18 18 8 8 8 8 27 1z m146 -144 c0 -5 -4 -10 -10 -10 -5 0 -10 5 -10 10 0 6 5 10 10 10 6 0 10 -4 10 -10z m41 -53 c-10 -9 -11 -8 -5 6 3 10 9 15 12 12 3 -3 0 -11 -7 -18z m209 -51 c0 -2 -8 -10 -17 -17 -16 -13 -17 -12 -4 4 13 16 21 21 21 13z m220 -76 c0 -5 -5 -10 -11 -10 -5 0 -7 5 -4 10 3 6 8 10 11 10 2 0 4 -4 4 -10z m0 -30 c0 -5 -10 -15 -22 -21 -23 -12 -23 -12 -4 10 21 23 26 26 26 11z" fill="#3cd070"/>
<path d="M2182 1014 c15 -16 42 -37 60 -47 32 -17 32 -17 8 0 -13 10 -40 31 -60 48 l-35 29 27 -30z" fill="#3cd070"/>
<path d="M2280 946 c0 -2 7 -7 16 -10 8 -3 12 -2 9 4 -6 10 -25 14 -25 6z" fill="#3cd070"/>
<path d="M2370 900 c8 -5 20 -10 25 -10 6 0 3 5 -5 10 -8 5 -19 10 -25 10 -5 0 -3 -5 5 -10z" fill="#3cd070"/>
<path d="M2838 883 c7 -3 16 -2 19 1 4 3 -2 6 -13 5 -11 0 -14 -3 -6 -6z" fill="#3cd070"/>
<path d="M2448 873 c7 -3 16 -2 19 1 4 3 -2 6 -13 5 -11 0 -14 -3 -6 -6z" fill="#3cd070"/>
<path d="M2788 873 c6 -2 18 -2 25 0 6 3 1 5 -13 5 -14 0 -19 -2 -12 -5z" fill="#3cd070"/>
<path d="M2502 858 c29 -8 204 -8 242 1 17 3 -36 6 -118 6 -81 0 -137 -3 -124 -7z" fill="#3cd070"/>
<path d="M1990 785 c-10 -12 -10 -15 3 -15 8 0 20 7 27 15 10 12 10 15 -3 15 -8 0 -20 -7 -27 -15z" fill="#3cd070"/>
<path d="M2045 790 c-3 -5 1 -10 10 -10 9 0 13 5 10 10 -3 6 -8 10 -10 10 -2 0 -7 -4 -10 -10z" fill="#3cd070"/>
<path d="M2080 779 c0 -5 5 -7 10 -4 6 3 10 8 10 11 0 2 -4 4 -10 4 -5 0 -10 -5 -10 -11z" fill="#3cd070"/>
<path d="M2040 760 c-8 -5 -11 -12 -7 -16 4 -4 15 0 24 9 18 18 8 23 -17 7z" fill="#3cd070"/>
<path d="M2115 750 c-4 -6 5 -10 19 -10 14 0 26 5 26 10 0 6 -9 10 -19 10 -11 0 -23 -4 -26 -10z" fill="#3cd070"/>
<path d="M2385 660 c-3 -5 1 -10 9 -10 9 0 16 5 16 10 0 6 -4 10 -9 10 -6 0 -13 -4 -16 -10z" fill="#3cd070"/>
<path d="M2355 640 c-3 -5 -1 -10 4 -10 6 0 11 5 11 10 0 6 -2 10 -4 10 -3 0 -8 -4 -11 -10z" fill="#3cd070"/>
<path d="M1910 621 c0 -5 5 -13 10 -16 6 -3 10 -2 10 4 0 5 -4 13 -10 16 -5 3 -10 2 -10 -4z" fill="#3cd070"/>
<path d="M2241 606 c-7 -8 -8 -17 -3 -20 6 -3 13 1 16 10 9 23 2 28 -13 10z" fill="#3cd070"/>
</g>
</svg>